<mxfile host="app.diagrams.net" modified="2023-04-30T06:38:50.404Z" agent="Mozilla/5.0 (Windows NT 10.0; Win64; x64) AppleWebKit/537.36 (KHTML, like Gecko) Chrome/112.0.0.0 Safari/537.36" etag="THHPl4wCzwikE2ulbjg1" version="21.2.3" type="github">
  <diagram name="Page-1" id="ZDZshAeu74dyOMzmwXjM">
    <mxGraphModel dx="1330" dy="756" grid="1" gridSize="10" guides="1" tooltips="1" connect="1" arrows="1" fold="1" page="1" pageScale="1" pageWidth="850" pageHeight="1100" math="0" shadow="0">
      <root>
        <mxCell id="0" />
        <mxCell id="1" parent="0" />
        <mxCell id="tV_qPGv2H9Pv114OiVUq-1" value="" style="sketch=0;points=[[0,0,0],[0.25,0,0],[0.5,0,0],[0.75,0,0],[1,0,0],[0,1,0],[0.25,1,0],[0.5,1,0],[0.75,1,0],[1,1,0],[0,0.25,0],[0,0.5,0],[0,0.75,0],[1,0.25,0],[1,0.5,0],[1,0.75,0]];outlineConnect=0;fontColor=#232F3E;gradientColor=#F78E04;gradientDirection=north;fillColor=#D05C17;strokeColor=#ffffff;dashed=0;verticalLabelPosition=bottom;verticalAlign=top;align=center;html=1;fontSize=12;fontStyle=0;aspect=fixed;shape=mxgraph.aws4.resourceIcon;resIcon=mxgraph.aws4.compute;" vertex="1" parent="1">
          <mxGeometry x="260" y="350" width="78" height="78" as="geometry" />
        </mxCell>
        <mxCell id="tV_qPGv2H9Pv114OiVUq-2" value="" style="sketch=0;points=[[0,0,0],[0.25,0,0],[0.5,0,0],[0.75,0,0],[1,0,0],[0,1,0],[0.25,1,0],[0.5,1,0],[0.75,1,0],[1,1,0],[0,0.25,0],[0,0.5,0],[0,0.75,0],[1,0.25,0],[1,0.5,0],[1,0.75,0]];outlineConnect=0;fontColor=#232F3E;gradientColor=#F78E04;gradientDirection=north;fillColor=#D05C17;strokeColor=#ffffff;dashed=0;verticalLabelPosition=bottom;verticalAlign=top;align=center;html=1;fontSize=12;fontStyle=0;aspect=fixed;shape=mxgraph.aws4.resourceIcon;resIcon=mxgraph.aws4.compute;" vertex="1" parent="1">
          <mxGeometry x="540" y="350" width="78" height="78" as="geometry" />
        </mxCell>
        <mxCell id="tV_qPGv2H9Pv114OiVUq-5" value="" style="sketch=0;points=[[0,0,0],[0.25,0,0],[0.5,0,0],[0.75,0,0],[1,0,0],[0,1,0],[0.25,1,0],[0.5,1,0],[0.75,1,0],[1,1,0],[0,0.25,0],[0,0.5,0],[0,0.75,0],[1,0.25,0],[1,0.5,0],[1,0.75,0]];outlineConnect=0;fontColor=#232F3E;gradientColor=#F78E04;gradientDirection=north;fillColor=#D05C17;strokeColor=#ffffff;dashed=0;verticalLabelPosition=bottom;verticalAlign=top;align=center;html=1;fontSize=12;fontStyle=0;aspect=fixed;shape=mxgraph.aws4.resourceIcon;resIcon=mxgraph.aws4.elastic_load_balancing;" vertex="1" parent="1">
          <mxGeometry x="380" y="190" width="78" height="78" as="geometry" />
        </mxCell>
        <mxCell id="tV_qPGv2H9Pv114OiVUq-7" value="" style="sketch=0;outlineConnect=0;fontColor=#232F3E;gradientColor=none;fillColor=#2E27AD;strokeColor=none;dashed=0;verticalLabelPosition=bottom;verticalAlign=top;align=center;html=1;fontSize=12;fontStyle=0;aspect=fixed;pointerEvents=1;shape=mxgraph.aws4.rds_mysql_instance_alt;" vertex="1" parent="1">
          <mxGeometry x="260" y="550" width="78" height="78" as="geometry" />
        </mxCell>
        <mxCell id="tV_qPGv2H9Pv114OiVUq-8" value="" style="sketch=0;points=[[0,0,0],[0.25,0,0],[0.5,0,0],[0.75,0,0],[1,0,0],[0,1,0],[0.25,1,0],[0.5,1,0],[0.75,1,0],[1,1,0],[0,0.25,0],[0,0.5,0],[0,0.75,0],[1,0.25,0],[1,0.5,0],[1,0.75,0]];outlineConnect=0;fontColor=#232F3E;gradientColor=#60A337;gradientDirection=north;fillColor=#277116;strokeColor=#ffffff;dashed=0;verticalLabelPosition=bottom;verticalAlign=top;align=center;html=1;fontSize=12;fontStyle=0;aspect=fixed;shape=mxgraph.aws4.resourceIcon;resIcon=mxgraph.aws4.elastic_block_store;" vertex="1" parent="1">
          <mxGeometry x="370" y="374" width="30" height="30" as="geometry" />
        </mxCell>
        <mxCell id="tV_qPGv2H9Pv114OiVUq-11" value="" style="sketch=0;points=[[0,0,0],[0.25,0,0],[0.5,0,0],[0.75,0,0],[1,0,0],[0,1,0],[0.25,1,0],[0.5,1,0],[0.75,1,0],[1,1,0],[0,0.25,0],[0,0.5,0],[0,0.75,0],[1,0.25,0],[1,0.5,0],[1,0.75,0]];outlineConnect=0;fontColor=#232F3E;gradientColor=#60A337;gradientDirection=north;fillColor=#277116;strokeColor=#ffffff;dashed=0;verticalLabelPosition=bottom;verticalAlign=top;align=center;html=1;fontSize=12;fontStyle=0;aspect=fixed;shape=mxgraph.aws4.resourceIcon;resIcon=mxgraph.aws4.elastic_block_store;" vertex="1" parent="1">
          <mxGeometry x="650" y="374" width="30" height="30" as="geometry" />
        </mxCell>
        <mxCell id="tV_qPGv2H9Pv114OiVUq-15" value="" style="sketch=0;outlineConnect=0;fontColor=#232F3E;gradientColor=none;fillColor=#232F3D;strokeColor=none;dashed=0;verticalLabelPosition=bottom;verticalAlign=top;align=center;html=1;fontSize=12;fontStyle=0;aspect=fixed;pointerEvents=1;shape=mxgraph.aws4.client;" vertex="1" parent="1">
          <mxGeometry x="380" y="70" width="78" height="76" as="geometry" />
        </mxCell>
        <mxCell id="tV_qPGv2H9Pv114OiVUq-26" value="" style="edgeStyle=orthogonalEdgeStyle;html=1;endArrow=open;elbow=vertical;startArrow=open;startFill=0;endFill=0;strokeColor=#545B64;rounded=0;entryX=0;entryY=0.5;entryDx=0;entryDy=0;entryPerimeter=0;" edge="1" parent="1" target="tV_qPGv2H9Pv114OiVUq-8">
          <mxGeometry width="100" relative="1" as="geometry">
            <mxPoint x="338" y="388.5" as="sourcePoint" />
            <mxPoint x="438" y="388.5" as="targetPoint" />
          </mxGeometry>
        </mxCell>
        <mxCell id="tV_qPGv2H9Pv114OiVUq-32" value="" style="edgeStyle=orthogonalEdgeStyle;html=1;endArrow=open;elbow=vertical;startArrow=open;startFill=0;endFill=0;strokeColor=#545B64;rounded=0;" edge="1" parent="1">
          <mxGeometry width="100" relative="1" as="geometry">
            <mxPoint x="620" y="390" as="sourcePoint" />
            <mxPoint x="650" y="390" as="targetPoint" />
          </mxGeometry>
        </mxCell>
        <mxCell id="tV_qPGv2H9Pv114OiVUq-42" value="EC2 Primary" style="text;strokeColor=none;align=center;fillColor=none;html=1;verticalAlign=middle;whiteSpace=wrap;rounded=0;" vertex="1" parent="1">
          <mxGeometry x="190" y="380" width="60" height="30" as="geometry" />
        </mxCell>
        <mxCell id="tV_qPGv2H9Pv114OiVUq-47" value="EC2 Backup" style="text;strokeColor=none;align=center;fillColor=none;html=1;verticalAlign=middle;whiteSpace=wrap;rounded=0;" vertex="1" parent="1">
          <mxGeometry x="480" y="380" width="60" height="30" as="geometry" />
        </mxCell>
        <mxCell id="tV_qPGv2H9Pv114OiVUq-49" value="" style="edgeStyle=orthogonalEdgeStyle;html=1;endArrow=block;elbow=vertical;startArrow=none;endFill=1;strokeColor=#545B64;rounded=0;" edge="1" parent="1">
          <mxGeometry width="100" relative="1" as="geometry">
            <mxPoint x="418.5" y="146" as="sourcePoint" />
            <mxPoint x="419" y="190" as="targetPoint" />
          </mxGeometry>
        </mxCell>
        <mxCell id="tV_qPGv2H9Pv114OiVUq-52" value="" style="edgeStyle=orthogonalEdgeStyle;html=1;endArrow=none;elbow=vertical;startArrow=open;startFill=0;strokeColor=#545B64;rounded=0;exitX=0.5;exitY=0;exitDx=0;exitDy=0;exitPerimeter=0;" edge="1" parent="1" source="tV_qPGv2H9Pv114OiVUq-1">
          <mxGeometry width="100" relative="1" as="geometry">
            <mxPoint x="280" y="228.5" as="sourcePoint" />
            <mxPoint x="380" y="228.5" as="targetPoint" />
            <Array as="points">
              <mxPoint x="299" y="229" />
            </Array>
          </mxGeometry>
        </mxCell>
        <mxCell id="tV_qPGv2H9Pv114OiVUq-56" value="" style="edgeStyle=orthogonalEdgeStyle;html=1;endArrow=open;elbow=vertical;startArrow=open;startFill=0;endFill=0;strokeColor=#545B64;rounded=0;exitX=0.5;exitY=1;exitDx=0;exitDy=0;exitPerimeter=0;" edge="1" parent="1" source="tV_qPGv2H9Pv114OiVUq-1" target="tV_qPGv2H9Pv114OiVUq-7">
          <mxGeometry width="100" relative="1" as="geometry">
            <mxPoint x="320" y="460" as="sourcePoint" />
            <mxPoint x="420" y="460" as="targetPoint" />
          </mxGeometry>
        </mxCell>
        <mxCell id="tV_qPGv2H9Pv114OiVUq-58" value="" style="sketch=0;outlineConnect=0;fontColor=#232F3E;gradientColor=none;fillColor=#2E27AD;strokeColor=none;dashed=0;verticalLabelPosition=bottom;verticalAlign=top;align=center;html=1;fontSize=12;fontStyle=0;aspect=fixed;pointerEvents=1;shape=mxgraph.aws4.rds_mysql_instance_alt;" vertex="1" parent="1">
          <mxGeometry x="540" y="550" width="78" height="78" as="geometry" />
        </mxCell>
        <mxCell id="tV_qPGv2H9Pv114OiVUq-60" value="" style="edgeStyle=orthogonalEdgeStyle;html=1;endArrow=open;elbow=vertical;startArrow=open;startFill=0;endFill=0;strokeColor=#545B64;rounded=0;exitX=0.5;exitY=1;exitDx=0;exitDy=0;exitPerimeter=0;" edge="1" parent="1" source="tV_qPGv2H9Pv114OiVUq-2" target="tV_qPGv2H9Pv114OiVUq-58">
          <mxGeometry width="100" relative="1" as="geometry">
            <mxPoint x="420" y="520" as="sourcePoint" />
            <mxPoint x="629" y="520" as="targetPoint" />
          </mxGeometry>
        </mxCell>
        <mxCell id="tV_qPGv2H9Pv114OiVUq-62" value="" style="rounded=1;arcSize=10;dashed=1;strokeColor=#F59D56;fillColor=none;gradientColor=none;dashPattern=8 4;strokeWidth=2;" vertex="1" parent="1">
          <mxGeometry x="180" y="300" width="240" height="370" as="geometry" />
        </mxCell>
        <mxCell id="tV_qPGv2H9Pv114OiVUq-63" value="" style="rounded=1;arcSize=10;dashed=1;strokeColor=#F59D56;fillColor=none;gradientColor=none;dashPattern=8 4;strokeWidth=2;" vertex="1" parent="1">
          <mxGeometry x="458" y="300" width="240" height="370" as="geometry" />
        </mxCell>
        <mxCell id="tV_qPGv2H9Pv114OiVUq-64" value="" style="rounded=1;arcSize=10;dashed=0;fillColor=none;gradientColor=none;strokeWidth=2;" vertex="1" parent="1">
          <mxGeometry x="520" y="330" width="120" height="120" as="geometry" />
        </mxCell>
        <mxCell id="tV_qPGv2H9Pv114OiVUq-66" value="" style="rounded=1;arcSize=10;dashed=0;fillColor=none;gradientColor=none;strokeWidth=2;" vertex="1" parent="1">
          <mxGeometry x="239" y="329" width="120" height="120" as="geometry" />
        </mxCell>
        <mxCell id="tV_qPGv2H9Pv114OiVUq-68" value="" style="rounded=1;arcSize=10;dashed=1;fillColor=none;gradientColor=none;dashPattern=1 1;strokeWidth=2;" vertex="1" parent="1">
          <mxGeometry x="120" y="180" width="640" height="550" as="geometry" />
        </mxCell>
        <mxCell id="tV_qPGv2H9Pv114OiVUq-69" value="VPC" style="sketch=0;outlineConnect=0;gradientColor=none;html=1;whiteSpace=wrap;fontSize=12;fontStyle=0;shape=mxgraph.aws4.group;grIcon=mxgraph.aws4.group_vpc;strokeColor=#879196;fillColor=none;verticalAlign=top;align=left;spacingLeft=30;fontColor=#879196;dashed=0;" vertex="1" parent="1">
          <mxGeometry x="70" y="160" width="730" height="630" as="geometry" />
        </mxCell>
      </root>
    </mxGraphModel>
  </diagram>
</mxfile>
